<svg preserveAspectRatio="none" width="100%" height="100%" overflow="visible" style="display: block;" viewBox="0 0 35 30" fill="none" xmlns="http://www.w3.org/2000/svg">
<g id="Group">
<path id="Vector" d="M30.1335 23.6492H10.4896L5.35238 2.13115H0V0H7.02348L12.1607 21.518H30.1335V23.6492Z" fill="var(--fill-0, #883D13)"/>
<path id="Vector_2" d="M30.3633 18.477H10.1537V16.3459H28.8618L32.0067 7.37376H7.43921V5.24262H35L30.3633 18.477Z" fill="var(--fill-0, #883D13)"/>
<g id="Group_2">
<path id="Vector_3" d="M14.4342 6.02547L12.3547 6.43759L14.5456 17.6144L16.625 17.2022L14.4342 6.02547Z" fill="var(--fill-0, #883D13)"/>
<path id="Vector_4" d="M26.5105 6.0293L24.3197 17.2061L26.3991 17.6182L28.5899 6.44141L26.5105 6.0293Z" fill="var(--fill-0, #883D13)"/>
</g>
<path id="Vector_5" d="M21.5318 6.30819H19.4124V17.4115H21.5318V6.30819Z" fill="var(--fill-0, #883D13)"/>
<path id="Vector_6" d="M31.8176 11.1639H9.01416V13.2951H31.8176V11.1639Z" fill="var(--fill-0, #883D13)"/>
<path id="Vector_7" d="M13.9932 30C12.3775 30 11.0635 28.6787 11.0635 27.0541C11.0635 25.4295 12.3775 24.1082 13.9932 24.1082C15.6088 24.1082 16.9229 25.4295 16.9229 27.0541C16.9229 28.6787 15.6088 30 13.9932 30ZM13.9932 26.241C13.5465 26.241 13.1829 26.6066 13.1829 27.0557C13.1829 27.5049 13.5465 27.8705 13.9932 27.8705C14.4399 27.8705 14.8035 27.5049 14.8035 27.0557C14.8035 26.6066 14.4399 26.241 13.9932 26.241Z" fill="var(--fill-0, #883D13)"/>
<path id="Vector_8" d="M26.4049 30C24.7893 30 23.4752 28.6787 23.4752 27.0541C23.4752 25.4295 24.7893 24.1082 26.4049 24.1082C28.0206 24.1082 29.3346 25.4295 29.3346 27.0541C29.3346 28.6787 28.0206 30 26.4049 30ZM26.4049 26.241C25.9582 26.241 25.5947 26.6066 25.5947 27.0557C25.5947 27.5049 25.9582 27.8705 26.4049 27.8705C26.8516 27.8705 27.2152 27.5049 27.2152 27.0557C27.2152 26.6066 26.8516 26.241 26.4049 26.241Z" fill="var(--fill-0, #883D13)"/>
</g>
</svg>
