<svg preserveAspectRatio="none" width="100%" height="100%" overflow="visible" style="display: block;" viewBox="0 0 30 30" fill="none" xmlns="http://www.w3.org/2000/svg">
<g id="Group">
<path id="Vector" d="M15 30C6.72951 30 0 23.2705 0 15C0 6.72951 6.72951 0 15 0C23.2705 0 30 6.72951 30 15C30 23.2705 23.2705 30 15 30ZM15 2.13115C7.90328 2.13115 2.13115 7.90328 2.13115 15C2.13115 22.0967 7.90328 27.8689 15 27.8689C22.0967 27.8689 27.8689 22.0967 27.8689 15C27.8689 7.90328 22.0967 2.13115 15 2.13115Z" fill="var(--fill-0, #883D13)"/>
<path id="Vector_2" d="M15.0001 29.7705C10.1378 29.7705 6.32959 23.3049 6.32959 15.0508C6.32959 6.79673 10.1378 0.332794 15.0001 0.332794C19.8624 0.332794 23.6706 6.79837 23.6706 15.0525C23.6706 23.3066 19.8624 29.7721 15.0001 29.7721V29.7705ZM15.0001 2.46394C11.4558 2.46394 8.46074 8.22788 8.46074 15.0525C8.46074 21.8771 11.4558 27.641 15.0001 27.641C18.5443 27.641 21.5394 21.8771 21.5394 15.0525C21.5394 8.22788 18.5443 2.46394 15.0001 2.46394Z" fill="var(--fill-0, #883D13)"/>
<g id="Group_2">
<path id="Vector_3" d="M14.7951 8.89837C8.73114 8.89837 4.70163 6.76886 4.45245 6.63279L5.46721 4.75902C5.55081 4.80328 13.9918 9.21968 24.6246 4.71476L25.4557 6.67705C21.5279 8.34099 17.8967 8.89837 14.7967 8.89837H14.7951Z" fill="var(--fill-0, #883D13)"/>
<path id="Vector_4" d="M5.37535 25.2852L4.5442 23.3229C16.1573 18.4049 25.1688 23.1623 25.5475 23.3672L24.5311 25.241L25.0393 24.3049L24.5327 25.2426C24.4491 25.1984 16.0081 20.7836 5.37535 25.2869V25.2852Z" fill="var(--fill-0, #883D13)"/>
</g>
<path id="Vector_5" d="M16.0656 1.06558H13.9345V28.9344H16.0656V1.06558Z" fill="var(--fill-0, #883D13)"/>
<path id="Vector_6" d="M28.9344 13.9344H1.06555V16.0656H28.9344V13.9344Z" fill="var(--fill-0, #883D13)"/>
</g>
</svg>
