<svg width="30" height="30" viewBox="0 0 30 30" fill="none" xmlns="http://www.w3.org/2000/svg">
  <path d="M15 2.7027C18.9459 2.7027 19.4324 2.7027 20.9459 2.7027C22.027 2.7027 23.1081 2.97297 24.027 3.51351C24.8108 4.05405 25.4595 4.72973 26 5.54054C26.5405 6.45946 26.8108 7.54054 26.8108 8.62162C26.8108 10.1351 26.8108 10.6216 26.8108 14.5676C26.8108 18.5135 26.8108 19 26.8108 20.5135C26.8108 21.5946 26.5405 22.6757 26 23.5946C25.4595 24.4054 24.8108 25.0811 24.027 25.6216C23.1081 26.1622 22.027 26.4324 20.9459 26.4324C19.4324 26.4324 18.9459 26.4324 15 26.4324C11.0541 26.4324 10.5676 26.4324 9.05405 26.4324C7.97297 26.4324 6.89189 26.1622 5.97297 25.6216C5.18919 25.0811 4.54054 24.4054 4 23.5946C3.45946 22.6757 3.18919 21.5946 3.18919 20.5135C3.18919 19 3.18919 18.5135 3.18919 14.5676C3.18919 10.6216 3.18919 10.1351 3.18919 8.62162C3.18919 7.54054 3.45946 6.45946 4 5.54054C4.54054 4.72973 5.18919 4.05405 5.97297 3.51351C6.89189 2.97297 7.97297 2.7027 9.05405 2.7027C10.5676 2.7027 11.0541 2.7027 15 2.7027ZM15 0C11 0 10.4595 0 8.89189 0C7.32432 0 5.75676 0.405405 4.45946 1.18919C3.24324 1.97297 2.16216 3.05405 1.37838 4.27027C0.594595 5.56757 0.189189 7.13514 0.189189 8.7027C0.189189 10.2703 0.189189 10.8108 0.189189 14.8108C0.189189 18.8108 0.189189 19.3514 0.189189 20.9189C0.189189 22.4865 0.594595 24.0541 1.37838 25.3514C2.16216 26.5676 3.24324 27.6486 4.45946 28.4324C5.75676 29.2162 7.32432 29.6216 8.89189 29.6216C10.4595 29.6216 11 29.6216 15 29.6216C19 29.6216 19.5405 29.6216 21.1081 29.6216C22.6757 29.6216 24.2432 29.2162 25.5405 28.4324C26.7568 27.6486 27.8378 26.5676 28.6216 25.3514C29.4054 24.0541 29.8108 22.4865 29.8108 20.9189C29.8108 19.3514 29.8108 18.8108 29.8108 14.8108C29.8108 10.8108 29.8108 10.2703 29.8108 8.7027C29.8108 7.13514 29.4054 5.56757 28.6216 4.27027C27.8378 3.05405 26.7568 1.97297 25.5405 1.18919C24.2432 0.405405 22.6757 0 21.1081 0C19.5405 0 19 0 15 0Z" fill="#3D1806"/>
  <path d="M15 7.2973C11.4865 7.2973 8.62158 10.1622 8.62158 13.6757C8.62158 17.1892 11.4865 20.0541 15 20.0541C18.5135 20.0541 21.3784 17.1892 21.3784 13.6757C21.3784 10.1622 18.5135 7.2973 15 7.2973ZM15 17.5676C12.8919 17.5676 11.1081 15.7838 11.1081 13.6757C11.1081 11.5676 12.8919 9.78378 15 9.78378C17.1081 9.78378 18.8919 11.5676 18.8919 13.6757C18.8919 15.7838 17.1081 17.5676 15 17.5676Z" fill="#3D1806"/>
  <circle cx="21.6757" cy="7" r="1.62162" fill="#3D1806"/>
</svg>
