<svg preserveAspectRatio="none" width="100%" height="100%" overflow="visible" style="display: block;" viewBox="0 0 78 71" fill="none" xmlns="http://www.w3.org/2000/svg">
<g id="Layer_1" clip-path="url(#clip0_2009_21)">
<path id="Vector" d="M62.3812 47.1262C60.8172 47.619 59.0956 47.8718 57.2545 47.8718C53.2018 47.8718 49.5794 46.7021 47.2867 45.7423C45.403 50.044 43.6345 54.8471 42.1642 59.7358C41.444 62.1309 39.2877 63.7419 36.7946 63.7419C34.4039 63.7419 32.2731 62.2166 31.4932 59.9415C31.2886 59.3416 31.067 58.7503 30.8326 58.1676C29.6564 58.3262 28.5783 58.4033 27.5427 58.4033C22.1049 58.4033 17.5791 56.2353 13.7053 51.7793C11.5276 49.2728 10.6029 45.798 9.70792 42.4346C8.90247 39.4097 8.07146 36.2819 6.56712 34.8637C5.17784 33.5527 4.61105 31.586 5.08408 29.7308C5.56138 27.8713 7.00606 26.4188 8.8556 25.9432C11.2165 25.3391 13.6627 25.0306 16.1301 25.0306C20.6389 25.0306 25.1178 26.0632 29.0854 28.0212C32.3072 29.6108 35.0644 32.4387 37.1185 36.0377C39.309 30.7934 41.9639 26.106 45.1814 21.7529C48.8635 16.7742 54.2842 12.9309 60.5189 10.6601C54.1095 4.08322 45.1857 0 35.3116 0C15.8105 0 0 15.8958 0 35.5021C0 55.1084 15.8105 71.0043 35.3116 71.0043C52.277 71.0043 66.4468 58.9689 69.8433 42.9316C67.6614 44.8126 65.1129 46.2693 62.3855 47.1305L62.3812 47.1262Z" fill="var(--fill-0, #F26B2B)"/>
<path id="Vector_2" d="M77.1264 12.8024C77.8849 12.8838 78.2557 13.7621 77.7912 14.3662C76.1846 16.4614 75.1746 19.1264 74.5481 21.7315C73.5552 25.8575 73.2185 30.1978 71.4073 34.0282C69.3958 38.2828 65.5689 41.6291 61.1028 43.0387C57.0329 44.3241 51.7869 43.1716 47.9344 41.342C51.0965 31.9288 56.5258 23.1882 64.0347 19.3278C57.0031 22.3142 51.6505 28.5825 47.6787 35.4293C44.197 41.4363 40.7238 49.727 38.0859 58.489C37.7066 59.7444 35.9508 59.7786 35.5247 58.5404C32.9251 50.9652 28.0797 43.9342 21.3122 39.414C25.2414 43.5743 28.3226 48.5359 30.3213 53.9088C25.8849 54.5129 21.325 54.0287 16.9185 48.9515C13.5732 45.1039 13.8843 35.8749 9.48631 31.7274C8.93231 31.2047 9.17948 30.2707 9.91674 30.0821C15.6486 28.6125 21.9003 29.2338 27.2146 31.8559C32.712 34.5681 36.6369 42.4603 36.7861 51.0809C39.3004 40.498 43.0251 31.8517 48.6078 24.2936C54.5953 16.1872 66.0292 11.6284 77.1306 12.7938L77.1264 12.8024Z" fill="var(--fill-0, #883D13)"/>
</g>
<defs>
<clipPath id="clip0_2009_21">
<rect width="78" height="71" fill="white"/>
</clipPath>
</defs>
</svg>
