<svg preserveAspectRatio="none" width="100%" height="100%" overflow="visible" style="display: block;" viewBox="0 0 63 63" fill="none" xmlns="http://www.w3.org/2000/svg">
<g id="Layer_1" clip-path="url(#clip0_2009_36)">
<g id="Group">
<path id="Vector" d="M15.2718 5.54119H17.7278V5.5708H32.9178V5.54119H35.3738C36.6762 5.54119 37.7293 4.49365 37.7293 3.19812V2.34307C37.7293 1.04753 36.6762 0 35.3738 0H15.2755C13.9731 0 12.92 1.04753 12.92 2.34307V3.19812C12.92 4.49365 13.9731 5.54119 15.2755 5.54119H15.2718Z" fill="var(--fill-0, #883D13)"/>
<path id="Vector_2" d="M35.4668 57.6476H8.49179C5.35854 57.6476 3.41234 54.2607 5.00502 51.5734L18.2116 27.2951C25.948 32.0256 32.274 27.2951 32.274 27.2951L35.6045 33.3434C35.6045 33.3434 35.5859 33.3545 35.5784 33.3582C36.6725 32.6919 37.8819 32.1996 39.1582 31.9257L32.9141 21.169V9.27233H17.7241V21.1727L9.80165 34.8203L1.06054 49.8855C-1.94991 55.0713 1.81223 61.5527 7.83314 61.5527H38.347C37.1934 60.0351 36.1924 58.6803 35.2845 57.3774C35.3477 57.4662 35.4073 57.5551 35.4705 57.6476H35.4668Z" fill="var(--fill-0, #883D13)"/>
</g>
<path id="Vector_3" d="M16.6822 52.2841C18.7825 52.2841 20.4852 50.5904 20.4852 48.5011C20.4852 46.4118 18.7825 44.7182 16.6822 44.7182C14.5818 44.7182 12.8791 46.4118 12.8791 48.5011C12.8791 50.5904 14.5818 52.2841 16.6822 52.2841Z" fill="var(--fill-0, #F26B2B)"/>
<path id="Vector_4" d="M62.7358 48.1384C62.7618 48.0421 62.7879 47.9422 62.8102 47.8459C63.7294 43.8668 61.1506 39.6434 56.9865 38.6921C53.9426 37.9962 50.8726 39.3472 49.1087 41.5608C48.491 38.8068 46.3216 36.2565 43.2776 35.5643C39.1136 34.613 34.9421 37.2929 34.023 41.272C34.0006 41.372 33.9597 41.5682 33.9597 41.5682C33.9597 41.5682 32.4415 46.1988 36.5422 52.5691C38.3954 55.5155 40.5574 58.4064 44.1595 63C49.4139 60.4311 52.629 58.7692 55.5874 56.9184C62.0697 52.9652 62.7358 48.1384 62.7358 48.1384Z" fill="var(--fill-0, #F26B2B)"/>
<path id="Vector_5" d="M26.9192 40.4799C28.4585 40.4799 29.7064 39.2386 29.7064 37.7075C29.7064 36.1763 28.4585 34.935 26.9192 34.935C25.3799 34.935 24.132 36.1763 24.132 37.7075C24.132 39.2386 25.3799 40.4799 26.9192 40.4799Z" fill="var(--fill-0, #F26B2B)"/>
<path id="Vector_6" d="M29.0812 52.2841C30.2753 52.2841 31.2432 51.3212 31.2432 50.1335C31.2432 48.9458 30.2753 47.9829 29.0812 47.9829C27.8872 47.9829 26.9192 48.9458 26.9192 50.1335C26.9192 51.3212 27.8872 52.2841 29.0812 52.2841Z" fill="var(--fill-0, #F26B2B)"/>
</g>
<defs>
<clipPath id="clip0_2009_36">
<rect width="63" height="63" fill="white"/>
</clipPath>
</defs>
</svg>
