<svg preserveAspectRatio="none" width="100%" height="100%" overflow="visible" style="display: block;" viewBox="0 0 65 76" fill="none" xmlns="http://www.w3.org/2000/svg">
<g id="Layer_1" clip-path="url(#clip0_2009_25)">
<path id="Vector" d="M25.221 58.4122C24.5505 58.6527 23.8486 58.7746 23.1364 58.7746C20.8363 58.7746 18.7342 57.5096 17.6502 55.471L16.7503 53.7774L14.8637 53.7426C12.72 53.6833 10.816 52.5055 9.74236 50.7561L0.121606 66.2251C-0.239737 66.8036 0.243212 67.5389 0.91378 67.4413L10.0585 66.0997C10.4442 66.0439 10.8125 66.2739 10.9306 66.6433L13.8109 75.4529C14.0229 76.1011 14.895 76.2021 15.2494 75.6236L25.9507 58.1474L25.2176 58.4157L25.221 58.4122Z" fill="var(--fill-0, #F26B2B)"/>
<path id="Vector_2" d="M64.8784 66.2251L55.2542 50.7561C54.1806 52.502 52.2766 53.6833 50.1328 53.7426L48.2184 53.7949L47.3463 55.471C46.2658 57.5096 44.1637 58.7746 41.8602 58.7746C41.1479 58.7746 40.4461 58.6527 39.7755 58.4122L39.0493 58.1509L49.7437 75.6167C50.0981 76.1986 50.9702 76.0941 51.1821 75.4459L54.0624 66.6363C54.184 66.267 54.5523 66.037 54.9345 66.0927L64.0793 67.4344C64.7533 67.5319 65.2328 66.7966 64.8714 66.2182L64.8784 66.2251Z" fill="var(--fill-0, #F26B2B)"/>
<path id="Vector_3" d="M60.5388 29.105L59.427 27.5439C58.7078 26.5333 58.5862 25.2125 59.1073 24.0835L59.9134 22.3445C60.4867 21.1109 60.0698 19.6403 58.9336 18.8911L57.3354 17.8387C56.3 17.1557 55.7093 15.9674 55.7927 14.7302L55.9178 12.8171C56.0047 11.458 55.0874 10.2383 53.7602 9.95259L51.8909 9.54835C50.6783 9.28699 49.702 8.3914 49.3302 7.20657L48.757 5.37705C48.3504 4.07722 47.0545 3.27571 45.7133 3.48828L43.8232 3.78798C42.6002 3.98313 41.3668 3.50222 40.592 2.53345L39.3968 1.03499C38.549 -0.0278784 37.0515 -0.310147 35.8806 0.376358L34.2268 1.34165C33.1567 1.96543 31.8329 1.96543 30.7628 1.34165L29.1089 0.376358C27.9346 -0.310147 26.4406 -0.0278784 25.5928 1.03499L24.3976 2.53345C23.6228 3.50571 22.3894 3.98313 21.1663 3.78798L19.2762 3.48828C17.9351 3.27571 16.6426 4.07722 16.2326 5.37705L15.6593 7.20657C15.2876 8.3914 14.3113 9.28699 13.0987 9.54835L11.2294 9.95259C9.90218 10.2383 8.98493 11.458 9.07179 12.8171L9.19687 14.7302C9.27678 15.9708 8.6896 17.1592 7.65421 17.8387L6.05597 18.8911C4.92329 19.6403 4.50636 21.1074 5.07617 22.3445L5.88224 24.0835C6.40341 25.209 6.2818 26.5298 5.56259 27.5439L4.45077 29.105C3.66207 30.2132 3.80452 31.7326 4.78084 32.677L6.1602 34.0082C7.05313 34.8689 7.41447 36.1443 7.10872 37.3501L6.6362 39.2075C6.29918 40.5282 6.98017 41.8943 8.23097 42.4205L9.99599 43.1627C11.1391 43.6436 11.9347 44.703 12.0841 45.9366L12.3134 47.8428C12.4767 49.1949 13.599 50.2229 14.9575 50.2613L16.8685 50.3135C18.1054 50.3484 19.2311 51.0453 19.8148 52.1431L20.7147 53.8367C21.354 55.0389 22.7715 55.5895 24.0501 55.133L25.8534 54.4883C27.0208 54.0702 28.3202 54.3141 29.2583 55.126L30.7072 56.3806C31.7356 57.2692 33.2574 57.2692 34.2859 56.3806L35.7347 55.126C36.6728 54.3141 37.9723 54.0702 39.1397 54.4883L40.9429 55.133C42.2215 55.5895 43.6426 55.0389 44.2784 53.8367L45.1783 52.1431C45.762 51.0453 46.8842 50.3484 48.1246 50.3135L50.0355 50.2613C51.3941 50.2229 52.5163 49.1949 52.6796 47.8428L52.9089 45.9366C53.0583 44.703 53.854 43.6436 54.9971 43.1627L56.7621 42.4205C58.0129 41.8943 58.6939 40.5282 58.3569 39.2075L57.8843 37.3501C57.5786 36.1478 57.9399 34.8689 58.8329 34.0082L60.2122 32.677C61.1885 31.7326 61.331 30.2132 60.5423 29.105H60.5388ZM32.5 46.3722C22.6708 46.3722 14.7039 38.3816 14.7039 28.5231C14.7039 18.6646 22.6708 10.6739 32.5 10.6739C42.3292 10.6739 50.2961 18.6646 50.2961 28.5231C50.2961 38.3816 42.3292 46.3722 32.5 46.3722Z" fill="var(--fill-0, #883D13)"/>
<path id="Vector_4" d="M29.1854 39.3991C35.2657 38.1028 40.3175 34.3497 41.6343 30.0669C42.9581 25.7596 42.6767 20.982 40.8977 16.849C40.6684 16.3193 39.9457 16.2427 39.6191 16.7236C37.0515 20.522 30.1339 21.3862 27.6601 24.3588C24.4011 28.2757 24.5817 31.7605 25.558 35.0292C29.3244 32.8861 32.6598 29.9797 35.2935 26.5298C32.7293 32.1542 28.0631 36.6322 22.7229 39.4898C22.7229 39.4898 22.7159 39.4898 22.7159 39.4932C22.4067 39.6605 22.5318 40.1414 22.8827 40.1658C25.0612 40.3296 27.1181 39.8905 29.1819 39.3991H29.1854Z" fill="var(--fill-0, #883D13)"/>
</g>
<defs>
<clipPath id="clip0_2009_25">
<rect width="65" height="76" fill="white"/>
</clipPath>
</defs>
</svg>
