<svg preserveAspectRatio="none" width="100%" height="100%" overflow="visible" style="display: block;" viewBox="0 0 77 65" fill="none" xmlns="http://www.w3.org/2000/svg">
<g id="Layer_1" clip-path="url(#clip0_2009_54)">
<path id="Vector" d="M64.7521 43.0886C65.6018 44.1574 66.7589 44.953 67.954 45.6291C69.7604 46.6466 71.7016 47.4251 73.7152 47.9407C71.2836 49.0334 68.4272 48.7295 65.9023 49.5968C62.6383 50.7134 60.217 53.906 60.0478 57.3172C58.9874 54.6265 57.8959 51.8812 55.9997 49.6822C54.5352 47.9851 52.6217 46.6705 50.4975 45.9091C51.2953 45.0008 52.4662 44.5023 53.6302 44.1506C54.7942 43.7989 56.0031 43.5564 57.0912 43.0203C59.8405 41.6613 60.856 39.0287 62.4898 36.6863C63.6814 38.7248 63.2427 41.1901 64.7521 43.0886Z" fill="var(--fill-0, #F26B2B)"/>
<g id="Group">
<path id="Vector_2" d="M11.9232 45.2535C7.74387 46.6876 2.91518 43.7545 1.13982 38.7009C-1.164 32.1415 0.10362 24.9435 4.28296 23.5094C8.4623 22.0753 14.1372 27.4191 16.2752 33.5039C18.0506 38.5575 16.1025 43.8193 11.9232 45.2535Z" fill="var(--fill-0, #883D13)"/>
<path id="Vector_3" d="M21.6566 26.3503C17.4012 27.542 12.7522 24.3391 11.2773 19.19C9.36034 12.5076 11.0493 5.39504 15.3081 4.20335C19.5635 3.01166 24.9171 8.67304 26.6925 14.8705C28.1674 20.0197 25.9154 25.1586 21.6566 26.3503Z" fill="var(--fill-0, #883D13)"/>
<path id="Vector_4" d="M39.6312 22.9153C44.0316 22.4543 47.1367 17.7695 46.5668 12.4496C45.8277 5.54187 41.5827 -0.433652 37.1823 0.0239021C32.7819 0.484871 29.9496 7.71013 30.6335 14.1159C31.2034 19.4358 35.2308 23.3762 39.6312 22.9153Z" fill="var(--fill-0, #883D13)"/>
<path id="Vector_5" d="M52.9878 52.9943C52.0759 51.8641 49.482 50.9524 45.3096 49.7607C42.8745 49.0641 41.3133 46.7525 41.6 44.2632C41.8866 41.7706 43.9314 39.8653 46.4667 39.7287C47.7343 39.6604 48.8568 39.5853 49.8516 39.4897C42.0317 33.4527 37.7419 26.4767 31.2518 27.7162C23.691 29.1605 23.1038 39.855 15.6224 49.6993C9.60212 57.6211 17.5014 66.3556 25.5458 64.819C31.6904 63.6444 33.5729 60.5303 37.5139 59.7757C41.4549 59.0245 44.377 61.2201 50.5216 60.0489C51.9067 59.7859 53.1709 59.2328 54.2727 58.485C54.0413 55.7021 53.6959 53.8719 52.9878 52.9909V52.9943Z" fill="var(--fill-0, #883D13)"/>
<path id="Vector_6" d="M55.7441 36.8775C56.4556 35.5458 57.1395 33.4766 57.9512 30.6937C58.6385 28.3445 60.8836 26.8215 63.3325 27.0128C63.3325 26.9513 63.3325 26.8864 63.3291 26.825C62.9975 19.8865 59.1083 13.6754 54.6906 13.8837C50.2695 14.092 47.0193 21.1431 47.3267 27.5762C47.5823 32.9029 51.3471 37.0551 55.7475 36.8775H55.7441Z" fill="var(--fill-0, #883D13)"/>
<path id="Vector_7" d="M59.4399 62.0088C58.8838 61.9235 58.4555 61.4659 58.4244 60.9059C57.8372 50.2046 56.8252 48.9515 46.4114 45.9774C45.8518 45.8169 45.4892 45.2808 45.5548 44.7071C45.6204 44.1335 46.0936 43.693 46.6773 43.6623C57.5022 43.0818 58.7698 42.0813 61.7782 31.7863C61.9406 31.2332 62.4828 30.8747 63.0631 30.9395C63.633 30.9976 64.089 31.4756 64.12 32.0493C64.7072 42.7506 65.7192 44.0071 76.133 46.9778C76.6926 47.1383 77.0553 47.6744 76.9896 48.2481C76.924 48.8217 76.4508 49.2622 75.8671 49.2929C65.0423 49.8734 63.7746 50.8739 60.7662 61.1688C60.6039 61.722 60.0616 62.0805 59.4813 62.0156C59.4675 62.0156 59.4502 62.0122 59.4364 62.0088H59.4399ZM52.5526 45.4959C57.5747 47.49 59.4468 49.8153 60.2826 55.0977C62.2998 50.1329 64.652 48.2822 69.9953 47.4559C64.9732 45.4618 63.1011 43.1364 62.2652 37.8541C60.2481 42.8189 57.8959 44.6696 52.5491 45.4959H52.5526Z" fill="var(--fill-0, #F26B2B)"/>
</g>
</g>
<defs>
<clipPath id="clip0_2009_54">
<rect width="77" height="65" fill="white"/>
</clipPath>
</defs>
</svg>
