<svg preserveAspectRatio="none" width="100%" height="100%" overflow="visible" style="display: block;" viewBox="0 0 22 22" fill="none" xmlns="http://www.w3.org/2000/svg">
<path id="Vector" d="M21.9276 15.5423C21.847 17.3048 21.4441 18.8659 20.1549 20.155C18.8656 21.4442 17.3044 21.847 15.5418 21.9276C14.0209 22.0182 12.5202 21.9981 10.9992 21.9981C9.47835 21.9981 7.97759 22.0082 6.45668 21.9276C4.69405 21.847 3.13286 21.4442 1.84362 20.155C0.554374 18.8659 0.161558 17.3048 0.0709083 15.5423C-0.00966931 14.0215 0.000402888 12.5208 0.000402888 11C0.000402888 9.4792 -0.00966931 7.97855 0.0709083 6.45775C0.151486 4.69523 0.554374 3.13415 1.84362 1.84499C3.13286 0.55584 4.69405 0.15298 6.45668 0.0724076C7.97759 -0.0182361 9.47835 0.00190705 10.9992 0.00190705C12.5202 0.00190705 14.0209 -0.00816453 15.5418 0.0724076C17.3044 0.15298 18.8656 0.55584 20.1549 1.84499C21.4441 3.13415 21.847 4.69523 21.9276 6.45775C22.0182 7.97855 21.9981 9.4792 21.9981 11C21.9981 12.5208 22.0082 14.0215 21.9276 15.5423ZM4.51275 2.41907C4.00914 2.6205 3.63647 2.86222 3.25372 3.24493C2.87098 3.62765 2.61918 4.0003 2.4278 4.50387C1.85369 5.95417 1.98463 9.38856 1.98463 10.9899C1.98463 12.5913 1.85369 16.0358 2.4278 17.476C2.62925 17.9796 2.87098 18.3522 3.25372 18.7349C3.63647 19.1176 4.00914 19.3694 4.51275 19.5608C5.96315 20.1349 9.39777 20.0039 10.9992 20.0039C12.6007 20.0039 16.0454 20.1349 17.4857 19.5608C17.9894 19.3594 18.362 19.1176 18.7448 18.7349C19.1275 18.3522 19.3793 17.9796 19.5707 17.476C20.1448 16.0257 20.0139 12.5913 20.0139 10.9899C20.0139 9.38856 20.1448 5.9441 19.5707 4.50387C19.3692 4.0003 19.1275 3.62765 18.7448 3.24493C18.362 2.86222 17.9894 2.61043 17.4857 2.41907C16.0354 1.84499 12.6007 1.97592 10.9992 1.97592C9.39777 1.97592 5.95307 1.84499 4.51275 2.41907ZM10.9992 16.64C7.87687 16.64 5.35881 14.1222 5.35881 11C5.35881 7.87783 7.87687 5.35995 10.9992 5.35995C14.1216 5.35995 16.6397 7.87783 16.6397 11C16.6397 14.1222 14.1216 16.64 10.9992 16.64ZM10.9992 7.33397C8.97474 7.33397 7.33297 8.9857 7.33297 11C7.33297 13.0143 8.98481 14.666 10.9992 14.666C13.0137 14.666 14.6655 13.0143 14.6655 11C14.6655 8.9857 13.0137 7.33397 10.9992 7.33397ZM16.8713 6.44768C16.1361 6.44768 15.5519 5.86353 15.5519 5.12831C15.5519 4.39309 16.1361 3.80894 16.8713 3.80894C17.6066 3.80894 18.1908 4.39309 18.1908 5.12831C18.1908 5.86353 17.6066 6.44768 16.8713 6.44768Z" fill="var(--fill-0, #3D1806)"/>
</svg>
